<svg width="172" height="90" viewBox="0 0 172 90" fill="none" xmlns="http://www.w3.org/2000/svg">
<path d="M23 0C25.7614 0 28 2.23858 28 5V85C28 87.7614 25.7614 90 23 90C20.2386 90 18 87.7614 18 85V5C18 2.23858 20.2386 0 23 0ZM66 0C68.7614 0 71 2.23858 71 5V85C71 87.7614 68.7614 90 66 90C63.2386 90 61 87.7614 61 85V5C61 2.23858 63.2386 0 66 0ZM109 0C111.761 0 114 2.23858 114 5V85C114 87.7614 111.761 90 109 90C106.239 90 104 87.7614 104 85V5C104 2.23858 106.239 0 109 0ZM152 0C154.761 0 157 2.23858 157 5V85C157 87.7614 154.761 90 152 90C149.239 90 147 87.7614 147 85V5C147 2.23858 149.239 0 152 0Z" fill="#313131"/>
<path d="M5 14H167C167.552 14 168 14.4477 168 15V75L167.995 75.1025C167.944 75.6067 167.518 76 167 76H5L4.89746 75.9951C4.39333 75.9438 4 75.5177 4 75V15L4.00488 14.8975C4.05278 14.427 4.42704 14.0528 4.89746 14.0049L5 14Z" fill="#00368F" stroke="#313131" stroke-width="8"/>
</svg>
